<svg xmlns="http://www.w3.org/2000/svg" width="1400" height="950" viewBox="0 0 1400 950">
  <defs>
    <linearGradient id="g" x1="0" y1="0" x2="1" y2="1">
      <stop stop-color="#282c34"/>
      <stop offset="1" stop-color="#21252b"/>
    </linearGradient>
    <filter id="s" x="-20%" y="-20%" width="140%" height="140%">
      <feDropShadow dx="0" dy="24" stdDeviation="28" flood-color="#000" flood-opacity="0.25"/>
    </filter>
  </defs>
  <rect width="1400" height="950" rx="52" fill="url(#g)"/>
  <g filter="url(#s)" transform="translate(165 330) rotate(-5)">
    <rect width="1070" height="330" rx="52" fill="#21252b"/>
    <g fill="#61afef">
      <rect x="40" y="40" width="52" height="48" rx="12" opacity="0.75"/><rect x="110" y="40" width="52" height="48" rx="12" opacity="0.83"/><rect x="180" y="40" width="52" height="48" rx="12" opacity="0.91"/><rect x="250" y="40" width="52" height="48" rx="12" opacity="0.75"/><rect x="320" y="40" width="52" height="48" rx="12" opacity="0.83"/><rect x="390" y="40" width="52" height="48" rx="12" opacity="0.91"/><rect x="460" y="40" width="52" height="48" rx="12" opacity="0.75"/><rect x="530" y="40" width="52" height="48" rx="12" opacity="0.83"/><rect x="600" y="40" width="52" height="48" rx="12" opacity="0.91"/><rect x="670" y="40" width="52" height="48" rx="12" opacity="0.75"/><rect x="740" y="40" width="52" height="48" rx="12" opacity="0.83"/><rect x="810" y="40" width="52" height="48" rx="12" opacity="0.91"/><rect x="880" y="40" width="52" height="48" rx="12" opacity="0.75"/><rect x="950" y="40" width="52" height="48" rx="12" opacity="0.83"/><rect x="40" y="110" width="52" height="48" rx="12" opacity="0.91"/><rect x="110" y="110" width="52" height="48" rx="12" opacity="0.75"/><rect x="180" y="110" width="52" height="48" rx="12" opacity="0.83"/><rect x="250" y="110" width="52" height="48" rx="12" opacity="0.91"/><rect x="320" y="110" width="52" height="48" rx="12" opacity="0.75"/><rect x="390" y="110" width="52" height="48" rx="12" opacity="0.83"/><rect x="460" y="110" width="52" height="48" rx="12" opacity="0.91"/><rect x="530" y="110" width="52" height="48" rx="12" opacity="0.75"/><rect x="600" y="110" width="52" height="48" rx="12" opacity="0.83"/><rect x="670" y="110" width="52" height="48" rx="12" opacity="0.91"/><rect x="740" y="110" width="52" height="48" rx="12" opacity="0.75"/><rect x="810" y="110" width="52" height="48" rx="12" opacity="0.83"/><rect x="880" y="110" width="52" height="48" rx="12" opacity="0.91"/><rect x="950" y="110" width="52" height="48" rx="12" opacity="0.75"/><rect x="40" y="180" width="52" height="48" rx="12" opacity="0.83"/><rect x="110" y="180" width="52" height="48" rx="12" opacity="0.91"/><rect x="180" y="180" width="52" height="48" rx="12" opacity="0.75"/><rect x="250" y="180" width="52" height="48" rx="12" opacity="0.83"/><rect x="320" y="180" width="52" height="48" rx="12" opacity="0.91"/><rect x="390" y="180" width="52" height="48" rx="12" opacity="0.75"/><rect x="460" y="180" width="52" height="48" rx="12" opacity="0.83"/><rect x="530" y="180" width="52" height="48" rx="12" opacity="0.91"/><rect x="600" y="180" width="52" height="48" rx="12" opacity="0.75"/><rect x="670" y="180" width="52" height="48" rx="12" opacity="0.83"/><rect x="740" y="180" width="52" height="48" rx="12" opacity="0.91"/><rect x="810" y="180" width="52" height="48" rx="12" opacity="0.75"/><rect x="880" y="180" width="52" height="48" rx="12" opacity="0.83"/><rect x="950" y="180" width="52" height="48" rx="12" opacity="0.91"/><rect x="40" y="250" width="52" height="48" rx="12" opacity="0.75"/><rect x="110" y="250" width="52" height="48" rx="12" opacity="0.83"/><rect x="180" y="250" width="52" height="48" rx="12" opacity="0.91"/><rect x="250" y="250" width="52" height="48" rx="12" opacity="0.75"/><rect x="320" y="250" width="52" height="48" rx="12" opacity="0.83"/><rect x="390" y="250" width="52" height="48" rx="12" opacity="0.91"/><rect x="460" y="250" width="52" height="48" rx="12" opacity="0.75"/><rect x="530" y="250" width="52" height="48" rx="12" opacity="0.83"/><rect x="600" y="250" width="52" height="48" rx="12" opacity="0.91"/><rect x="670" y="250" width="52" height="48" rx="12" opacity="0.75"/><rect x="740" y="250" width="52" height="48" rx="12" opacity="0.83"/><rect x="810" y="250" width="52" height="48" rx="12" opacity="0.91"/><rect x="880" y="250" width="52" height="48" rx="12" opacity="0.75"/><rect x="950" y="250" width="52" height="48" rx="12" opacity="0.83"/>
    </g>
    <rect x="250" y="250" width="420" height="48" rx="14" fill="#61afef" opacity=".85"/>
  </g>
  <text x="90" y="130" font-family="ui-sans-serif, system-ui, -apple-system, Segoe UI, sans-serif" font-size="56" font-weight="800" fill="#d7dae0">Example keyboard</text>
  <text x="92" y="192" font-family="ui-sans-serif, system-ui, -apple-system, Segoe UI, sans-serif" font-size="30" fill="#abb2bf" opacity=".78">Mode Envoy entry placeholder</text>
</svg>